<?xml version="1.0" standalone="no"?>
<!DOCTYPE svg PUBLIC "-//W3C//DTD SVG 20010904//EN"
 "http://www.w3.org/TR/2001/REC-SVG-20010904/DTD/svg10.dtd">
<svg version="1.0" xmlns="http://www.w3.org/2000/svg"
 width="1215.000000pt" height="1215.000000pt" viewBox="0 0 1215.000000 1215.000000"
 preserveAspectRatio="xMidYMid meet">
<metadata>
Created by potrace 1.14, written by Peter Selinger 2001-2017
</metadata>
<g transform="translate(0.000000,1215.000000) scale(0.100000,-0.100000)"
fill="#000000" stroke="none">
<path d="M4938 11385 c-2 -1 -50 -6 -108 -9 -158 -11 -197 -15 -355 -37 -147
-20 -280 -44 -405 -73 -36 -8 -76 -17 -90 -20 -165 -32 -541 -156 -799 -263
-199 -83 -505 -237 -666 -336 -160 -98 -423 -279 -511 -350 -11 -9 -59 -48
-109 -89 -202 -163 -398 -352 -615 -594 -73 -81 -250 -304 -319 -404 -340
-486 -588 -1000 -746 -1545 -24 -85 -46 -164 -49 -177 -2 -13 -13 -59 -24
-103 -11 -44 -25 -105 -31 -135 -6 -30 -13 -66 -16 -80 -3 -14 -8 -41 -11 -60
-14 -90 -33 -220 -39 -265 -4 -27 -8 -61 -10 -75 -2 -14 -6 -70 -10 -125 -3
-55 -8 -118 -10 -140 -6 -52 -6 -458 -1 -558 6 -112 17 -227 31 -337 3 -19 7
-55 10 -80 15 -118 72 -419 100 -530 15 -56 47 -176 64 -235 36 -131 133 -399
204 -565 65 -154 234 -496 261 -530 7 -8 17 -26 24 -40 6 -14 23 -43 37 -65
13 -22 32 -53 41 -69 71 -127 299 -440 463 -636 137 -164 456 -483 601 -600
30 -25 64 -53 75 -64 11 -10 79 -62 150 -116 530 -398 1101 -679 1740 -854
144 -40 389 -95 488 -110 20 -3 54 -9 75 -12 20 -3 48 -7 62 -10 43 -7 188
-24 242 -29 29 -2 94 -7 143 -12 176 -15 745 -7 842 11 10 2 50 7 88 10 65 7
104 11 165 21 14 3 43 7 65 10 22 3 54 9 70 12 17 3 39 7 50 9 208 27 792 196
1000 290 17 7 53 22 80 32 178 69 597 288 736 384 l27 18 -45 87 c-25 49 -87
169 -138 268 -128 248 -238 462 -368 715 -60 118 -113 219 -118 224 -4 4 -54
-21 -111 -57 -181 -113 -333 -193 -543 -287 -114 -50 -443 -161 -517 -174 -15
-2 -31 -7 -36 -10 -5 -3 -24 -8 -43 -11 -19 -3 -54 -11 -79 -16 -25 -6 -56
-13 -70 -15 -14 -3 -36 -7 -50 -10 -184 -35 -425 -56 -630 -57 -121 0 -350 10
-387 17 -10 2 -47 7 -83 11 -36 4 -74 9 -85 11 -10 2 -37 6 -60 10 -33 4 -151
28 -250 49 -16 4 -177 49 -285 79 -173 50 -470 179 -672 292 -92 51 -312 190
-341 215 -7 5 -46 35 -87 66 -586 441 -1045 1083 -1284 1794 -34 103 -111 385
-120 444 -3 17 -12 71 -20 120 -8 50 -18 113 -21 140 -3 28 -7 59 -9 70 -18
92 -26 472 -14 630 12 155 20 240 23 245 2 3 6 34 10 70 4 36 9 68 11 71 2 4
6 24 10 45 3 22 12 71 21 109 8 39 16 78 18 87 13 63 62 226 101 340 214 618
567 1144 1061 1580 361 319 825 584 1294 738 182 60 458 125 618 145 23 3 55
7 70 9 194 33 660 39 833 11 13 -2 50 -6 83 -10 33 -3 69 -8 80 -10 11 -3 36
-7 55 -9 223 -32 568 -128 800 -223 250 -103 466 -230 660 -386 82 -66 245
-226 301 -295 l35 -43 54 21 c156 62 389 126 530 146 19 3 46 7 60 9 14 2 52
7 85 10 33 3 80 8 105 11 66 7 285 6 365 -1 90 -8 233 -32 308 -51 33 -8 63
-14 67 -12 15 5 -97 286 -185 464 -128 260 -321 538 -453 654 -425 373 -1064
733 -1642 927 -58 19 -112 37 -120 41 -8 3 -17 6 -20 7 -3 0 -36 10 -75 22
-87 27 -340 91 -392 99 -21 3 -41 8 -44 10 -4 2 -24 6 -45 10 -22 3 -88 14
-149 24 -60 10 -137 22 -170 25 -32 4 -62 8 -65 10 -3 1 -48 6 -100 10 -52 4
-106 9 -120 11 -28 5 -617 13 -622 9z"/>
<path d="M8418 8685 c-2 -1 -37 -6 -78 -9 -64 -6 -121 -16 -248 -41 -13 -2
-32 -7 -42 -10 -10 -3 -27 -7 -37 -10 -67 -12 -264 -88 -381 -145 -227 -112
-395 -231 -567 -404 -289 -291 -484 -650 -581 -1068 -16 -69 -20 -92 -29 -153
-4 -22 -8 -51 -10 -65 -25 -161 -25 -481 0 -695 17 -148 73 -383 125 -525 47
-129 151 -334 225 -444 247 -370 595 -637 1020 -784 79 -27 182 -57 238 -68
10 -2 26 -5 35 -8 21 -6 63 -14 122 -22 25 -3 54 -8 65 -10 35 -7 217 -18 305
-18 84 0 258 12 269 19 3 1 24 6 46 9 22 4 48 9 57 12 9 3 25 6 35 8 70 14
313 96 338 115 5 4 30 16 55 25 149 57 401 222 625 409 l69 58 26 -30 c14 -17
48 -63 75 -102 68 -96 278 -388 303 -419 19 -25 23 -25 148 -25 l129 0 3 2118
2 2117 -132 0 -133 0 -130 -157 c-71 -86 -134 -161 -140 -167 -6 -6 -41 -48
-79 -94 -75 -91 -70 -90 -126 -31 -8 8 -64 55 -125 104 -187 151 -390 274
-595 362 -86 37 -234 87 -285 97 -11 2 -40 9 -65 15 -98 25 -242 39 -382 39
-81 0 -148 -1 -150 -3z m297 -1100 c200 -20 438 -144 606 -316 315 -323 424
-779 284 -1194 -119 -353 -450 -676 -770 -751 -123 -29 -318 -39 -411 -21 -16
4 -47 9 -68 12 -58 8 -212 62 -280 98 -169 88 -308 226 -405 399 -58 104 -115
275 -127 380 -4 29 -9 73 -13 98 -11 74 -4 298 14 405 49 303 205 563 429 717
128 88 324 159 481 174 39 3 71 7 72 8 5 4 116 -1 188 -9z"/>
<path d="M9908 4180 c-42 -27 -108 -66 -145 -86 -37 -20 -86 -47 -108 -59 -78
-42 -350 -154 -415 -170 -8 -2 -55 -15 -105 -29 -49 -14 -110 -29 -135 -32
-25 -3 -47 -8 -50 -9 -6 -4 -114 -18 -137 -18 -12 0 -6 -20 27 -92 10 -22 30
-65 43 -95 60 -134 72 -161 119 -265 317 -703 811 -1517 1287 -2120 118 -150
263 -326 316 -383 l41 -44 114 35 c178 55 820 256 870 273 25 9 52 17 60 19
12 3 111 33 406 126 l32 10 -56 52 c-101 95 -242 241 -347 358 -28 31 -64 72
-81 91 -110 123 -368 454 -498 638 -37 53 -255 388 -303 465 -155 251 -388
691 -497 938 -23 52 -35 63 -68 58 -6 -1 -63 76 -200 268 -29 41 -62 85 -73
98 l-20 23 -77 -50z"/>
</g>
</svg>
